<?xml version="1.0" encoding="UTF-8" standalone="no"?>
<!-- Generator: Adobe Illustrator 16.0.4, SVG Export Plug-In . SVG Version: 6.00 Build 0)  -->

<svg
   xmlns:dc="http://purl.org/dc/elements/1.1/"
   xmlns:cc="http://creativecommons.org/ns#"
   xmlns:rdf="http://www.w3.org/1999/02/22-rdf-syntax-ns#"
   xmlns:svg="http://www.w3.org/2000/svg"
   xmlns="http://www.w3.org/2000/svg"
   xmlns:sodipodi="http://sodipodi.sourceforge.net/DTD/sodipodi-0.dtd"
   xmlns:inkscape="http://www.inkscape.org/namespaces/inkscape"
   version="1.1"
   id="Calque_1"
   x="0px"
   y="0px"
   width="36px"
   height="36px"
   viewBox="0 0 36 36"
   enable-background="new 0 0 36 36"
   xml:space="preserve"
   inkscape:version="0.91 r13725"
   sodipodi:docname="btn-add-contact-to-conf.svg"><metadata
     id="metadata4437"><rdf:RDF><cc:Work
         rdf:about=""><dc:format>image/svg+xml</dc:format><dc:type
           rdf:resource="http://purl.org/dc/dcmitype/StillImage" /><dc:title></dc:title></cc:Work></rdf:RDF></metadata><defs
     id="defs4435" /><sodipodi:namedview
     pagecolor="#808080"
     bordercolor="#666666"
     borderopacity="1"
     objecttolerance="10"
     gridtolerance="10"
     guidetolerance="10"
     inkscape:pageopacity="1"
     inkscape:pageshadow="2"
     inkscape:window-width="711"
     inkscape:window-height="480"
     id="namedview4433"
     showgrid="false"
     inkscape:zoom="6.5555556"
     inkscape:cx="18.915254"
     inkscape:cy="18"
     inkscape:window-x="0"
     inkscape:window-y="4"
     inkscape:window-maximized="0"
     inkscape:current-layer="Calque_1" /><g
     id="g4427"><path
       fill="#FFFFFF"
       stroke="#231F20"
       stroke-width="0.0227"
       stroke-miterlimit="10"
       d="M23.844,15.221   c-2.62,0-4.743,2.124-4.743,4.745c0,2.619,2.123,4.743,4.743,4.743s4.744-2.124,4.744-4.743   C28.588,17.345,26.464,15.221,23.844,15.221z M27.075,20.694h-2.519V23.2H23.13v-2.506h-2.518v-1.426h2.518v-2.54h1.427v2.54h2.519   V20.694z"
       id="path4429" /><path
       fill="#FFFFFF"
       d="M17.583,19.966c0-2.364,1.31-4.421,3.244-5.488c0.016-0.071,0.032-0.143,0.049-0.216   c0.128-0.604,0.203-1.302,0.191-2.106c0,0,0-0.001,0-0.002c-0.003-0.127-0.006-0.252-0.016-0.376   c0.001-0.046,0.002-0.092,0.002-0.139c0-0.961-0.337-1.843-0.898-2.535c-0.738-0.906-1.862-1.485-3.121-1.485   c-1.588,0-2.96,0.92-3.613,2.256c-0.261,0.533-0.407,1.131-0.407,1.764c0,0.126,0.007,0.252,0.018,0.375   c-0.128,3.176,1.76,5.365,1.76,5.365c-2.648,0.798-4.96,2.916-5.403,5.708c-0.184,1.155,1.166,1.925,2.039,2.315   c1.714,0.772,3.672,1.036,5.535,1.049c1.559,0.011,3.173-0.155,4.674-0.625C19.269,24.933,17.583,22.646,17.583,19.966z"
       id="path4431" /></g></svg>