<?xml version="1.0" encoding="UTF-8" standalone="no"?>
<!-- Generator: Adobe Illustrator 16.0.4, SVG Export Plug-In . SVG Version: 6.00 Build 0)  -->

<svg
   xmlns:dc="http://purl.org/dc/elements/1.1/"
   xmlns:cc="http://creativecommons.org/ns#"
   xmlns:rdf="http://www.w3.org/1999/02/22-rdf-syntax-ns#"
   xmlns:svg="http://www.w3.org/2000/svg"
   xmlns="http://www.w3.org/2000/svg"
   xmlns:sodipodi="http://sodipodi.sourceforge.net/DTD/sodipodi-0.dtd"
   xmlns:inkscape="http://www.inkscape.org/namespaces/inkscape"
   version="1.1"
   id="Calque_1"
   x="0px"
   y="0px"
   width="36px"
   height="36px"
   viewBox="0 0 36 36"
   enable-background="new 0 0 36 36"
   xml:space="preserve"
   inkscape:version="0.91 r13725"
   sodipodi:docname="btn-transfer.svg"><metadata
     id="metadata4183"><rdf:RDF><cc:Work
         rdf:about=""><dc:format>image/svg+xml</dc:format><dc:type
           rdf:resource="http://purl.org/dc/dcmitype/StillImage" /><dc:title></dc:title></cc:Work></rdf:RDF></metadata><defs
     id="defs4181" /><sodipodi:namedview
     pagecolor="#808080"
     bordercolor="#666666"
     borderopacity="1"
     objecttolerance="10"
     gridtolerance="10"
     guidetolerance="10"
     inkscape:pageopacity="1"
     inkscape:pageshadow="2"
     inkscape:window-width="1882"
     inkscape:window-height="1027"
     id="namedview4179"
     showgrid="false"
     inkscape:zoom="11.916667"
     inkscape:cx="14.619244"
     inkscape:cy="20.265283"
     inkscape:window-x="0"
     inkscape:window-y="28"
     inkscape:window-maximized="1"
     inkscape:current-layer="Calque_1" /><path
     style="fill:#ffffff"
     inkscape:connector-curvature="0"
     id="path4177"
     d="m 13.583,19.966 c 0,-2.364 1.31,-4.421 3.244,-5.488 0.016,-0.071 0.032,-0.143 0.049,-0.216 0.128,-0.604 0.203,-1.302 0.191,-2.106 0,0 0,-0.001 0,-0.002 -0.003,-0.127 -0.006,-0.252 -0.016,-0.376 0.001,-0.046 0.002,-0.092 0.002,-0.139 0,-0.961 -0.337,-1.843 -0.898,-2.535 -0.738,-0.906 -1.862,-1.485 -3.121,-1.485 -1.588,0 -2.96,0.92 -3.613,2.256 -0.261,0.533 -0.407,1.131 -0.407,1.764 0,0.126 0.007,0.252 0.018,0.375 -0.128,3.176 1.76,5.365 1.76,5.365 -2.648,0.798 -4.96,2.916 -5.403,5.708 -0.184,1.155 1.166,1.925 2.039,2.315 1.714,0.772 3.672,1.036 5.535,1.049 1.559,0.011 3.173,-0.155 4.674,-0.625 -2.368,-0.893 -4.054,-3.18 -4.054,-5.86 z" /><g
     transform="matrix(-0.00608921,8.3981417e-4,-8.3981417e-4,-0.00608921,29.030063,22.617619)"
     id="g2991"
     style="fill:#ffffff;fill-opacity:1"><path
       d="m 1930.7398,576 0,128 q 0,26 -19,45 -19,19 -45,19 l -502,0 189,189 q 19,19 19,45 0,26 -19,45 l -91,91 q -18,18 -45,18 -27,0 -45,-18 l -362,-362 -91,-91 q -18,-18 -18,-45 0,-27 18,-45 l 91,-91 362,-362 q 18,-18 45,-18 27,0 45,18 l 91,91 q 18,18 18,45 0,27 -18,45 l -189,189 502,0 q 26,0 45,19 19,19 19,45 z m 256,64 q 0,-209 -103,-385.5 -103,-176.5 -279.5,-279.5 -176.5,-103 -385.5,-103 -209,0 -385.5,103 -176.5,103 -279.5,279.5 -103,176.5 -103,385.5 0,209 103,385.5 103,176.5 279.5,279.5 176.5,103 385.5,103 209,0 385.5,-103 176.5,-103 279.5,-279.5 103,-176.5 103,-385.5 z"
       id="path2993"
       inkscape:connector-curvature="0"
       style="fill:#ffffff;fill-opacity:1" /></g><path
     style="fill:#ffffff"
     inkscape:connector-curvature="0"
     id="path4177-7"
     d="m 25.613022,19.981586 c 0,-1.923571 -1.018464,-3.597337 -2.52206,-4.465547 -0.01244,-0.05777 -0.02488,-0.116359 -0.0381,-0.175758 -0.09951,-0.49147 -0.157823,-1.059427 -0.148493,-1.713637 0,0 0,-8.13e-4 0,-0.0017 0.0023,-0.103341 0.0047,-0.205051 0.01244,-0.305948 -7.77e-4,-0.03744 -0.0016,-0.07486 -0.0016,-0.113105 0,-0.781957 0.262002,-1.499635 0.698154,-2.062711 0.573761,-0.737205 1.447619,-1.208334 2.426433,-1.208334 1.234597,0 2.301264,0.748597 2.808941,1.835692 0.202916,0.433699 0.316424,0.920286 0.316424,1.435353 0,0.102531 -0.0054,0.205052 -0.01399,0.305136 0.09951,2.584289 -1.368319,4.365462 -1.368319,4.365462 2.058698,0.649328 3.856171,2.372728 4.200583,4.644559 0.143052,0.939815 -0.906511,1.566359 -1.585228,1.8837 -1.332556,0.62817 -2.854811,0.842985 -4.303207,0.853564 -1.212051,0.0089 -2.466862,-0.126123 -3.63382,-0.508558 1.841011,-0.726629 3.151798,-2.587544 3.151798,-4.768242 z" /></svg>