<?xml version="1.0" encoding="utf-8"?>
<!-- Generator: Adobe Illustrator 16.0.4, SVG Export Plug-In . SVG Version: 6.00 Build 0)  -->
<!DOCTYPE svg PUBLIC "-//W3C//DTD SVG 1.1//EN" "http://www.w3.org/Graphics/SVG/1.1/DTD/svg11.dtd">
<svg version="1.1" id="Calque_1" xmlns="http://www.w3.org/2000/svg" xmlns:xlink="http://www.w3.org/1999/xlink" x="0px" y="0px"
	 width="36px" height="36px" viewBox="0 0 36 36" enable-background="new 0 0 36 36" xml:space="preserve">
<path opacity="0.6" d="M36,18c0,9.941-8.059,18-18,18l0,0C8.059,36,0,27.941,0,18l0,0C0,8.059,8.059,0,18,0l0,0
	C27.941,0,36,8.059,36,18L36,18z"/>
<g>
	<path fill="#FFFFFF" d="M24.841,13.088l-3.627,3.626V18c0,0.884-0.314,1.641-0.943,2.27c-0.63,0.63-1.386,0.944-2.271,0.944
		c-0.368,0-0.732-0.063-1.095-0.19l-0.964,0.964C16.591,22.329,17.277,22.5,18,22.5c1.239,0,2.299-0.44,3.179-1.321
		C22.06,20.299,22.5,19.239,22.5,18v-1.286c0-0.174,0.063-0.324,0.19-0.452c0.128-0.127,0.278-0.19,0.453-0.19
		c0.174,0,0.324,0.063,0.451,0.19c0.127,0.128,0.191,0.278,0.191,0.452V18c0,1.479-0.494,2.768-1.482,3.862
		c-0.987,1.095-2.207,1.723-3.66,1.883v1.326h2.57c0.175,0,0.325,0.063,0.453,0.19c0.127,0.128,0.19,0.278,0.19,0.452
		c0,0.175-0.063,0.325-0.19,0.452c-0.128,0.127-0.278,0.191-0.453,0.191h-6.428c-0.174,0-0.325-0.064-0.452-0.191
		s-0.19-0.277-0.19-0.452c0-0.174,0.063-0.324,0.19-0.452c0.127-0.127,0.278-0.19,0.452-0.19h2.571v-1.326
		c-0.837-0.087-1.624-0.357-2.36-0.813l-2.552,2.552c-0.066,0.066-0.144,0.101-0.23,0.101s-0.164-0.034-0.231-0.101l-0.823-0.824
		c-0.067-0.066-0.101-0.144-0.101-0.23s0.033-0.164,0.101-0.231l12.395-12.395c0.067-0.067,0.144-0.101,0.231-0.101
		c0.087,0,0.164,0.033,0.23,0.101l0.824,0.823c0.066,0.067,0.1,0.145,0.1,0.231S24.907,13.021,24.841,13.088z M13.651,19.135
		l-1.015,1.015c-0.281-0.689-0.422-1.406-0.422-2.149v-1.286c0-0.174,0.063-0.324,0.19-0.452c0.127-0.127,0.278-0.19,0.452-0.19
		s0.325,0.063,0.452,0.19c0.127,0.128,0.19,0.278,0.19,0.452V18C13.5,18.354,13.551,18.733,13.651,19.135z M21.023,11.762L14.786,18
		v-5.143c0-0.885,0.314-1.641,0.944-2.271c0.629-0.629,1.386-0.944,2.27-0.944c0.684,0,1.301,0.197,1.854,0.593
		C20.405,10.631,20.796,11.14,21.023,11.762z"/>
</g>
</svg>
