<?xml version="1.0" encoding="utf-8"?>
<!-- Generator: Adobe Illustrator 16.0.4, SVG Export Plug-In . SVG Version: 6.00 Build 0)  -->
<!DOCTYPE svg PUBLIC "-//W3C//DTD SVG 1.1//EN" "http://www.w3.org/Graphics/SVG/1.1/DTD/svg11.dtd">
<svg version="1.1" id="Calque_1" xmlns="http://www.w3.org/2000/svg" xmlns:xlink="http://www.w3.org/1999/xlink" x="0px" y="0px"
	 width="36px" height="36px" viewBox="0 0 36 36" enable-background="new 0 0 36 36" xml:space="preserve">
<path opacity="0.6" d="M36,18c0,9.941-8.059,18-18,18l0,0C8.059,36,0,27.941,0,18l0,0C0,8.059,8.059,0,18,0l0,0
	C27.941,0,36,8.059,36,18L36,18z"/>
<g>
	<path fill="#FFFFFF" d="M16,23.18c0,0.729-0.671,1.32-1.5,1.32l0,0c-0.829,0-1.5-0.591-1.5-1.32V12.82c0-0.729,0.671-1.32,1.5-1.32
		l0,0c0.829,0,1.5,0.591,1.5,1.32V23.18z"/>
	<path fill="#FFFFFF" d="M23,23.18c0,0.729-0.672,1.32-1.5,1.32l0,0c-0.828,0-1.5-0.591-1.5-1.32V12.82c0-0.729,0.672-1.32,1.5-1.32
		l0,0c0.828,0,1.5,0.591,1.5,1.32V23.18z"/>
</g>
</svg>
