<?xml version="1.0" encoding="UTF-8" standalone="no"?>
<!-- Generator: Adobe Illustrator 16.0.4, SVG Export Plug-In . SVG Version: 6.00 Build 0)  -->

<svg
   xmlns:dc="http://purl.org/dc/elements/1.1/"
   xmlns:cc="http://creativecommons.org/ns#"
   xmlns:rdf="http://www.w3.org/1999/02/22-rdf-syntax-ns#"
   xmlns:svg="http://www.w3.org/2000/svg"
   xmlns="http://www.w3.org/2000/svg"
   xmlns:sodipodi="http://sodipodi.sourceforge.net/DTD/sodipodi-0.dtd"
   xmlns:inkscape="http://www.inkscape.org/namespaces/inkscape"
   version="1.1"
   id="Calque_1"
   x="0px"
   y="0px"
   width="36px"
   height="36px"
   viewBox="0 0 36 36"
   enable-background="new 0 0 36 36"
   xml:space="preserve"
   inkscape:version="0.91 r13725"
   sodipodi:docname="btn-novideo-activated.svg"><metadata
     id="metadata3566"><rdf:RDF><cc:Work
         rdf:about=""><dc:format>image/svg+xml</dc:format><dc:type
           rdf:resource="http://purl.org/dc/dcmitype/StillImage" /><dc:title /></cc:Work></rdf:RDF></metadata><defs
     id="defs3564" /><sodipodi:namedview
     pagecolor="#ffffff"
     bordercolor="#666666"
     borderopacity="1"
     objecttolerance="10"
     gridtolerance="10"
     guidetolerance="10"
     inkscape:pageopacity="0"
     inkscape:pageshadow="2"
     inkscape:window-width="711"
     inkscape:window-height="480"
     id="namedview3562"
     showgrid="false"
     inkscape:zoom="6.5555556"
     inkscape:cx="18.915254"
     inkscape:cy="18"
     inkscape:window-x="0"
     inkscape:window-y="4"
     inkscape:window-maximized="1"
     inkscape:current-layer="Calque_1" /><path
     opacity="0.6"
     d="M36,18c0,9.941-8.059,18-18,18l0,0C8.059,36,0,27.941,0,18l0,0C0,8.059,8.059,0,18,0l0,0  C27.941,0,36,8.059,36,18L36,18z"
     id="path3554"
     style="fill:#00c0d5;fill-opacity:0.60000002" /><g
     id="g3556"><path
       fill="#FFFFFF"
       d="M12.547,11.557c-0.779,0-1.444,0.276-1.997,0.829s-0.829,1.218-0.829,1.997v5.395l8.222-8.22H12.547z"
       id="path3558" /><path
       fill="#FFFFFF"
       d="M26.921,11.92c-0.085-0.032-0.167-0.049-0.245-0.049c-0.177,0-0.324,0.062-0.441,0.187l-3.954,3.944v-1.619   c0-0.333-0.062-0.642-0.163-0.934l1.58-1.58c0.216-0.215,0.24-0.542,0.052-0.73l-0.603-0.602c-0.187-0.188-0.514-0.164-0.729,0.052   L8.875,24.129c-0.216,0.217-0.239,0.545-0.052,0.732l0.603,0.602c0.188,0.188,0.513,0.164,0.73-0.051l1.457-1.457   c0.292,0.1,0.6,0.162,0.934,0.162h6.907c0.778,0,1.443-0.277,1.997-0.83c0.552-0.553,0.829-1.217,0.829-1.996v-1.629l3.954,3.955   c0.117,0.123,0.265,0.186,0.441,0.186c0.078,0,0.16-0.016,0.245-0.049c0.255-0.111,0.383-0.305,0.383-0.578V12.499   C27.304,12.224,27.176,12.031,26.921,11.92z"
       id="path3560" /></g></svg>