<?xml version="1.0" encoding="utf-8"?>
<!-- Generator: Adobe Illustrator 16.0.4, SVG Export Plug-In . SVG Version: 6.00 Build 0)  -->
<!DOCTYPE svg PUBLIC "-//W3C//DTD SVG 1.1//EN" "http://www.w3.org/Graphics/SVG/1.1/DTD/svg11.dtd">
<svg version="1.1" id="Calque_1" xmlns="http://www.w3.org/2000/svg" xmlns:xlink="http://www.w3.org/1999/xlink" x="0px" y="0px"
	 width="36px" height="36px" viewBox="0 0 36 36" enable-background="new 0 0 36 36" xml:space="preserve">
<path opacity="0.6" d="M36,18c0,9.941-8.059,18-18,18l0,0C8.059,36,0,27.941,0,18l0,0C0,8.059,8.059,0,18,0l0,0
	C27.941,0,36,8.059,36,18L36,18z"/>
<g>
	<path fill="#FFFFFF" stroke="#231F20" stroke-width="0.0227" stroke-miterlimit="10" d="M23.844,15.221
		c-2.62,0-4.743,2.124-4.743,4.745c0,2.619,2.123,4.743,4.743,4.743s4.744-2.124,4.744-4.743
		C28.588,17.345,26.464,15.221,23.844,15.221z M27.075,20.694h-2.519V23.2H23.13v-2.506h-2.518v-1.426h2.518v-2.54h1.427v2.54h2.519
		V20.694z"/>
	<path fill="#FFFFFF" d="M17.583,19.966c0-2.364,1.31-4.421,3.244-5.488c0.016-0.071,0.032-0.143,0.049-0.216
		c0.128-0.604,0.203-1.302,0.191-2.106c0,0,0-0.001,0-0.002c-0.003-0.127-0.006-0.252-0.016-0.376
		c0.001-0.046,0.002-0.092,0.002-0.139c0-0.961-0.337-1.843-0.898-2.535c-0.738-0.906-1.862-1.485-3.121-1.485
		c-1.588,0-2.96,0.92-3.613,2.256c-0.261,0.533-0.407,1.131-0.407,1.764c0,0.126,0.007,0.252,0.018,0.375
		c-0.128,3.176,1.76,5.365,1.76,5.365c-2.648,0.798-4.96,2.916-5.403,5.708c-0.184,1.155,1.166,1.925,2.039,2.315
		c1.714,0.772,3.672,1.036,5.535,1.049c1.559,0.011,3.173-0.155,4.674-0.625C19.269,24.933,17.583,22.646,17.583,19.966z"/>
</g>
</svg>
