<?xml version="1.0" encoding="UTF-8" standalone="no"?>
<!-- Generator: Adobe Illustrator 16.0.4, SVG Export Plug-In . SVG Version: 6.00 Build 0)  -->

<svg
   xmlns:dc="http://purl.org/dc/elements/1.1/"
   xmlns:cc="http://creativecommons.org/ns#"
   xmlns:rdf="http://www.w3.org/1999/02/22-rdf-syntax-ns#"
   xmlns:svg="http://www.w3.org/2000/svg"
   xmlns="http://www.w3.org/2000/svg"
   xmlns:sodipodi="http://sodipodi.sourceforge.net/DTD/sodipodi-0.dtd"
   xmlns:inkscape="http://www.inkscape.org/namespaces/inkscape"
   version="1.1"
   id="Calque_1"
   x="0px"
   y="0px"
   width="36px"
   height="36px"
   viewBox="0 0 36 36"
   enable-background="new 0 0 36 36"
   xml:space="preserve"
   inkscape:version="0.91 r13725"
   sodipodi:docname="btn-transfer.svg"><metadata
     id="metadata4183"><rdf:RDF><cc:Work
         rdf:about=""><dc:format>image/svg+xml</dc:format><dc:type
           rdf:resource="http://purl.org/dc/dcmitype/StillImage" /><dc:title /></cc:Work></rdf:RDF></metadata><defs
     id="defs4181" /><sodipodi:namedview
     pagecolor="#ffffff"
     bordercolor="#666666"
     borderopacity="1"
     objecttolerance="10"
     gridtolerance="10"
     guidetolerance="10"
     inkscape:pageopacity="0"
     inkscape:pageshadow="2"
     inkscape:window-width="1882"
     inkscape:window-height="1027"
     id="namedview4179"
     showgrid="false"
     inkscape:zoom="23.833334"
     inkscape:cx="30.224703"
     inkscape:cy="17.362939"
     inkscape:window-x="0"
     inkscape:window-y="28"
     inkscape:window-maximized="1"
     inkscape:current-layer="Calque_1" /><path
     opacity="0.6"
     d="M36,18c0,9.941-8.059,18-18,18l0,0C8.059,36,0,27.941,0,18l0,0C0,8.059,8.059,0,18,0l0,0  C27.941,0,36,8.059,36,18L36,18z"
     id="path4171"
     style="fill:#000000;fill-opacity:1" /><path
     style="fill:#ffffff;stroke:none;stroke-width:1.70000005;stroke-linecap:butt;stroke-linejoin:round;stroke-miterlimit:0;stroke-dasharray:none;stroke-dashoffset:0;stroke-opacity:0.6"
     d="m 17.541016,7.8535156 c -1.1e-5,0.0073 10e-6,0.018131 0,0.025391 -1.44423,0.119133 -2.674669,0.9894392 -3.28125,2.2304688 -0.261,0.533 -0.40625,1.130672 -0.40625,1.763672 0,0.126 0.0066,0.252 0.01758,0.375 -0.128,3.176 1.759765,5.365234 1.759765,5.365234 -1.957612,0.589946 -3.726507,1.905668 -4.697265,3.677735 0.32066,0.994276 0.870625,1.866518 1.660156,2.636718 1.256825,1.226053 2.672547,1.771157 4.359375,1.691407 1.686283,-0.07972 3.053912,-0.759495 4.210937,-2.107422 l 0.587891,-0.685547 -2.441406,-2.38086 4.449219,-0.199218 c -1.011773,-1.238626 -2.429642,-2.166633 -3.976563,-2.632813 0,0 1.887766,-2.189234 1.759766,-5.365234 0.011,-0.123 0.01758,-0.249 0.01758,-0.375 0,-0.633 -0.14525,-1.230672 -0.40625,-1.763672 -0.606581,-1.2410296 -1.83702,-2.1113358 -3.28125,-2.2304688 l 0,-0.025391 c -0.05642,0 -0.110166,0.0094 -0.166016,0.011719 -0.05585,-0.0023 -0.109598,-0.011719 -0.166015,-0.011719 z"
     id="path4177-9"
     inkscape:connector-curvature="0"
     sodipodi:nodetypes="cccscccssccccccsccccc" /><path
     id="path4214-6-3-2"
     d="m 25.428418,27.625914 0.892654,-1.039936 1.951001,1.903233 -0.329911,-7.930642 -7.456669,0.334708 1.950997,1.90323 -0.892653,1.039937 q -1.849066,2.154151 -4.567894,2.282693 -2.71883,0.128536 -4.730801,-1.834173 -2.011967,-1.962707 -2.141251,-4.869626 -0.1292797,-2.906914 1.719787,-5.061067 -2.582318,3.008386 -2.4049569,7.071114 0.1773656,4.062727 2.9993469,6.815614 2.821984,2.752891 6.625007,2.573097 3.803027,-0.179796 6.385343,-3.188182 z"
     inkscape:connector-curvature="0"
     style="fill:#ffffff;fill-opacity:1;stroke:none;stroke-opacity:1" /></svg>