<?xml version="1.0" encoding="UTF-8" standalone="no"?>
<!-- Generator: Adobe Illustrator 16.0.4, SVG Export Plug-In . SVG Version: 6.00 Build 0)  -->

<svg
   xmlns:dc="http://purl.org/dc/elements/1.1/"
   xmlns:cc="http://creativecommons.org/ns#"
   xmlns:rdf="http://www.w3.org/1999/02/22-rdf-syntax-ns#"
   xmlns:svg="http://www.w3.org/2000/svg"
   xmlns="http://www.w3.org/2000/svg"
   xmlns:sodipodi="http://sodipodi.sourceforge.net/DTD/sodipodi-0.dtd"
   xmlns:inkscape="http://www.inkscape.org/namespaces/inkscape"
   version="1.1"
   id="Calque_1"
   x="0px"
   y="0px"
   width="36px"
   height="36px"
   viewBox="0 0 36 36"
   enable-background="new 0 0 36 36"
   xml:space="preserve"
   inkscape:version="0.91 r13725"
   sodipodi:docname="btn-pause.svg"><metadata
     id="metadata4388"><rdf:RDF><cc:Work
         rdf:about=""><dc:format>image/svg+xml</dc:format><dc:type
           rdf:resource="http://purl.org/dc/dcmitype/StillImage" /><dc:title></dc:title></cc:Work></rdf:RDF></metadata><defs
     id="defs4386" /><sodipodi:namedview
     pagecolor="#808080"
     bordercolor="#666666"
     borderopacity="1"
     objecttolerance="10"
     gridtolerance="10"
     guidetolerance="10"
     inkscape:pageopacity="1"
     inkscape:pageshadow="2"
     inkscape:window-width="1882"
     inkscape:window-height="1027"
     id="namedview4384"
     showgrid="false"
     inkscape:zoom="23.833333"
     inkscape:cx="18.251748"
     inkscape:cy="18"
     inkscape:window-x="0"
     inkscape:window-y="28"
     inkscape:window-maximized="1"
     inkscape:current-layer="Calque_1" /><g
     id="g4378"><path
       fill="#FFFFFF"
       d="M16,23.18c0,0.729-0.671,1.32-1.5,1.32l0,0c-0.829,0-1.5-0.591-1.5-1.32V12.82c0-0.729,0.671-1.32,1.5-1.32   l0,0c0.829,0,1.5,0.591,1.5,1.32V23.18z"
       id="path4380" /><path
       fill="#FFFFFF"
       d="M23,23.18c0,0.729-0.672,1.32-1.5,1.32l0,0c-0.828,0-1.5-0.591-1.5-1.32V12.82c0-0.729,0.672-1.32,1.5-1.32   l0,0c0.828,0,1.5,0.591,1.5,1.32V23.18z"
       id="path4382" /></g></svg>