<?xml version="1.0" encoding="UTF-8" standalone="no"?>
<!-- Generator: Adobe Illustrator 16.0.4, SVG Export Plug-In . SVG Version: 6.00 Build 0)  -->

<svg
   xmlns:dc="http://purl.org/dc/elements/1.1/"
   xmlns:cc="http://creativecommons.org/ns#"
   xmlns:rdf="http://www.w3.org/1999/02/22-rdf-syntax-ns#"
   xmlns:svg="http://www.w3.org/2000/svg"
   xmlns="http://www.w3.org/2000/svg"
   xmlns:sodipodi="http://sodipodi.sourceforge.net/DTD/sodipodi-0.dtd"
   xmlns:inkscape="http://www.inkscape.org/namespaces/inkscape"
   version="1.1"
   id="Calque_1"
   x="0px"
   y="0px"
   width="36px"
   height="36px"
   viewBox="0 0 36 36"
   enable-background="new 0 0 36 36"
   xml:space="preserve"
   inkscape:version="0.91 r13725"
   sodipodi:docname="btn-chat.svg"><metadata
     id="metadata8149"><rdf:RDF><cc:Work
         rdf:about=""><dc:format>image/svg+xml</dc:format><dc:type
           rdf:resource="http://purl.org/dc/dcmitype/StillImage" /><dc:title></dc:title></cc:Work></rdf:RDF></metadata><defs
     id="defs8147" /><sodipodi:namedview
     pagecolor="#808080"
     bordercolor="#666666"
     borderopacity="1"
     objecttolerance="10"
     gridtolerance="10"
     guidetolerance="10"
     inkscape:pageopacity="1"
     inkscape:pageshadow="2"
     inkscape:window-width="711"
     inkscape:window-height="480"
     id="namedview8145"
     showgrid="false"
     inkscape:zoom="6.5555556"
     inkscape:cx="18.915254"
     inkscape:cy="18"
     inkscape:window-x="0"
     inkscape:window-y="4"
     inkscape:window-maximized="0"
     inkscape:current-layer="Calque_1" /><g
     id="g8141"><path
       fill="#FFFFFF"
       d="M26.17,14.092c0.804,0.988,1.205,2.064,1.205,3.229s-0.401,2.242-1.205,3.229   c-0.804,0.988-1.896,1.768-3.274,2.341c-1.38,0.572-2.887,0.858-4.521,0.858c-0.736,0-1.443-0.061-2.119-0.181   c-1.159,1.158-2.615,1.925-4.37,2.3c-0.348,0.067-0.636,0.11-0.863,0.131c-0.08,0.007-0.154-0.014-0.221-0.061   c-0.067-0.047-0.111-0.106-0.131-0.181c-0.027-0.101,0.04-0.225,0.201-0.371c0.033-0.034,0.111-0.105,0.235-0.217   c0.124-0.11,0.21-0.188,0.257-0.235c0.046-0.047,0.125-0.133,0.235-0.257s0.191-0.229,0.241-0.316   c0.051-0.087,0.119-0.211,0.206-0.371c0.087-0.161,0.154-0.321,0.201-0.482c0.047-0.16,0.095-0.353,0.146-0.577   c0.05-0.225,0.092-0.468,0.125-0.729c-0.978-0.603-1.746-1.327-2.305-2.175c-0.56-0.847-0.839-1.749-0.839-2.707   c0-1.165,0.401-2.241,1.205-3.229s1.896-1.768,3.274-2.341c1.38-0.572,2.887-0.858,4.521-0.858s3.141,0.286,4.521,0.858   C24.274,12.324,25.366,13.104,26.17,14.092z M15.427,18.23c0.251-0.251,0.377-0.554,0.377-0.909c0-0.354-0.126-0.658-0.377-0.909   s-0.554-0.376-0.909-0.376c-0.354,0-0.657,0.125-0.909,0.376c-0.251,0.251-0.376,0.555-0.376,0.909   c0,0.355,0.125,0.658,0.376,0.909c0.252,0.251,0.555,0.377,0.909,0.377C14.873,18.607,15.176,18.481,15.427,18.23z M19.284,18.23   c0.251-0.251,0.377-0.554,0.377-0.909c0-0.354-0.126-0.658-0.377-0.909s-0.555-0.376-0.909-0.376c-0.355,0-0.658,0.125-0.909,0.376   s-0.377,0.555-0.377,0.909c0,0.355,0.126,0.658,0.377,0.909s0.554,0.377,0.909,0.377C18.729,18.607,19.033,18.481,19.284,18.23z    M23.142,18.23c0.251-0.251,0.376-0.554,0.376-0.909c0-0.354-0.125-0.658-0.376-0.909c-0.252-0.251-0.555-0.376-0.909-0.376   c-0.355,0-0.658,0.125-0.909,0.376s-0.377,0.555-0.377,0.909c0,0.355,0.126,0.658,0.377,0.909s0.554,0.377,0.909,0.377   C22.587,18.607,22.89,18.481,23.142,18.23z"
       id="path8143" /></g></svg>