<?xml version="1.0" encoding="utf-8"?>
<!-- Generator: Adobe Illustrator 16.0.4, SVG Export Plug-In . SVG Version: 6.00 Build 0)  -->
<!DOCTYPE svg PUBLIC "-//W3C//DTD SVG 1.1//EN" "http://www.w3.org/Graphics/SVG/1.1/DTD/svg11.dtd">
<svg version="1.1" id="Calque_1" xmlns="http://www.w3.org/2000/svg" xmlns:xlink="http://www.w3.org/1999/xlink" x="0px" y="0px"
	 width="36px" height="36px" viewBox="0 0 36 36" enable-background="new 0 0 36 36" xml:space="preserve">
<path opacity="0.6" d="M36,18c0,9.941-8.059,18-18,18l0,0C8.059,36,0,27.941,0,18l0,0C0,8.059,8.059,0,18,0l0,0
	C27.941,0,36,8.059,36,18L36,18z"/>
<g>
	<path fill="#FFFFFF" d="M25.703,16.907v2.227c0,0.08-0.026,0.156-0.08,0.231c-0.055,0.073-0.121,0.115-0.201,0.128l-1.856,0.283
		c-0.126,0.359-0.257,0.664-0.39,0.913c0.233,0.334,0.591,0.794,1.071,1.383c0.068,0.08,0.102,0.164,0.102,0.249
		c0,0.088-0.03,0.166-0.091,0.233c-0.18,0.246-0.511,0.607-0.993,1.082c-0.48,0.476-0.795,0.712-0.943,0.712
		c-0.078,0-0.165-0.03-0.26-0.091l-1.383-1.082c-0.296,0.153-0.6,0.281-0.915,0.381c-0.104,0.909-0.203,1.531-0.29,1.865
		c-0.047,0.188-0.166,0.281-0.361,0.281h-2.226c-0.093,0-0.174-0.028-0.246-0.086c-0.07-0.057-0.108-0.129-0.115-0.215l-0.281-1.846
		c-0.327-0.106-0.629-0.231-0.902-0.37l-1.414,1.071c-0.067,0.061-0.15,0.091-0.251,0.091c-0.094,0-0.177-0.037-0.251-0.11
		c-0.842-0.762-1.394-1.322-1.654-1.684c-0.047-0.067-0.07-0.146-0.07-0.233c0-0.078,0.027-0.155,0.08-0.229
		c0.101-0.139,0.271-0.363,0.511-0.667c0.241-0.305,0.422-0.54,0.542-0.705c-0.181-0.335-0.317-0.666-0.41-0.993l-1.836-0.271
		c-0.087-0.015-0.158-0.057-0.211-0.127s-0.08-0.149-0.08-0.234v-2.229c0-0.08,0.027-0.157,0.08-0.23
		c0.053-0.074,0.118-0.117,0.19-0.131l1.866-0.281c0.093-0.308,0.223-0.615,0.391-0.923c-0.267-0.38-0.625-0.842-1.073-1.384
		c-0.067-0.08-0.101-0.16-0.101-0.241c0-0.066,0.03-0.143,0.091-0.23c0.174-0.241,0.503-0.6,0.988-1.079
		c0.485-0.478,0.801-0.717,0.948-0.717c0.087,0,0.174,0.034,0.261,0.1l1.384,1.073c0.294-0.154,0.598-0.28,0.913-0.381
		c0.107-0.909,0.204-1.531,0.291-1.865c0.046-0.187,0.167-0.281,0.36-0.281h2.226c0.095,0,0.177,0.028,0.247,0.085
		c0.069,0.057,0.107,0.129,0.114,0.216l0.281,1.845c0.327,0.107,0.628,0.231,0.904,0.372l1.422-1.073
		c0.061-0.06,0.143-0.09,0.24-0.09c0.088,0,0.173,0.034,0.253,0.1c0.861,0.796,1.413,1.365,1.653,1.705
		c0.047,0.054,0.071,0.127,0.071,0.22c0,0.081-0.027,0.158-0.082,0.231c-0.098,0.141-0.271,0.363-0.511,0.667
		s-0.422,0.54-0.541,0.707c0.174,0.334,0.312,0.662,0.411,0.982l1.837,0.281c0.085,0.013,0.155,0.055,0.21,0.125
		C25.677,16.742,25.703,16.82,25.703,16.907z M19.815,19.815c0.502-0.502,0.753-1.106,0.753-1.815s-0.251-1.314-0.753-1.815
		c-0.502-0.502-1.106-0.752-1.816-0.752c-0.708,0-1.313,0.25-1.814,0.752c-0.502,0.501-0.752,1.106-0.752,1.815
		s0.25,1.313,0.752,1.815c0.501,0.502,1.106,0.753,1.814,0.753C18.709,20.568,19.313,20.317,19.815,19.815z"/>
</g>
</svg>
