<?xml version="1.0" encoding="utf-8"?>
<!-- Generator: Adobe Illustrator 16.0.4, SVG Export Plug-In . SVG Version: 6.00 Build 0)  -->
<!DOCTYPE svg PUBLIC "-//W3C//DTD SVG 1.1//EN" "http://www.w3.org/Graphics/SVG/1.1/DTD/svg11.dtd">
<svg version="1.1" id="Calque_1" xmlns="http://www.w3.org/2000/svg" xmlns:xlink="http://www.w3.org/1999/xlink" x="0px" y="0px"
	 width="36px" height="36px" viewBox="0 0 36 36" enable-background="new 0 0 36 36" xml:space="preserve">
<path fill="#F44336" d="M36,18c0,9.941-8.059,18-18,18l0,0C8.059,36,0,27.941,0,18l0,0C0,8.059,8.059,0,18,0l0,0
	C27.941,0,36,8.059,36,18L36,18z"/>
<g>
	<path fill="#FFFFFF" d="M8.204,22.37c-0.158-0.157-0.336-0.394-0.533-0.708c-0.196-0.314-0.336-0.578-0.418-0.789
		c-0.17-0.417-0.124-1.086,0.141-2.008c0.252-0.852,0.649-1.547,1.189-2.088c0.159-0.159,0.323-0.303,0.494-0.432
		c0.17-0.128,0.376-0.261,0.616-0.396c0.241-0.135,0.423-0.231,0.546-0.29s0.346-0.162,0.669-0.309
		c0.323-0.147,0.52-0.238,0.59-0.272c0.781-0.372,1.54-0.641,2.273-0.811c1.215-0.289,2.625-0.432,4.229-0.432
		c1.603,0,3.013,0.144,4.227,0.432c0.734,0.17,1.492,0.439,2.273,0.81c0.07,0.037,0.268,0.127,0.59,0.273
		c0.323,0.146,0.546,0.25,0.67,0.309c0.123,0.059,0.306,0.155,0.547,0.29c0.239,0.135,0.445,0.268,0.617,0.396
		c0.17,0.129,0.333,0.274,0.491,0.432c0.541,0.541,0.938,1.236,1.19,2.088c0.264,0.922,0.311,1.591,0.14,2.008
		c-0.081,0.211-0.222,0.475-0.417,0.789c-0.197,0.313-0.375,0.55-0.533,0.708c-0.083,0.083-0.152,0.137-0.213,0.159
		c-0.14,0.071-0.519,0.004-1.136-0.202c-0.176-0.048-0.423-0.118-0.74-0.212c-0.315-0.093-0.604-0.178-0.867-0.252
		c-0.262-0.072-0.51-0.139-0.745-0.197c-0.04-0.005-0.165-0.027-0.374-0.066c-0.209-0.038-0.375-0.079-0.502-0.123
		c-0.125-0.044-0.23-0.106-0.312-0.188c-0.117-0.117-0.18-0.349-0.19-0.691c-0.007-0.345,0.013-0.688,0.062-1.031
		c0.051-0.345,0.077-0.681,0.08-1.013c0.002-0.333-0.05-0.552-0.155-0.657c-0.052-0.052-0.133-0.104-0.241-0.154
		c-0.109-0.05-0.194-0.085-0.257-0.105c-0.061-0.021-0.173-0.05-0.334-0.088s-0.251-0.061-0.27-0.066
		c-1.249-0.358-2.451-0.537-3.601-0.537c-1.152,0-2.353,0.179-3.604,0.537c-0.017,0.006-0.107,0.027-0.268,0.066
		c-0.162,0.038-0.273,0.067-0.335,0.088c-0.062,0.021-0.146,0.056-0.255,0.105s-0.189,0.101-0.243,0.154
		c-0.105,0.105-0.157,0.325-0.153,0.657c0.002,0.332,0.029,0.669,0.079,1.013c0.049,0.344,0.07,0.687,0.062,1.031
		c-0.009,0.342-0.072,0.573-0.189,0.69c-0.083,0.083-0.187,0.146-0.312,0.189c-0.127,0.044-0.294,0.085-0.502,0.123
		c-0.208,0.039-0.333,0.062-0.375,0.066c-0.234,0.059-0.483,0.124-0.744,0.198c-0.262,0.073-0.551,0.157-0.868,0.251
		c-0.316,0.094-0.563,0.164-0.74,0.212c-0.617,0.205-0.995,0.272-1.137,0.202C8.356,22.507,8.287,22.453,8.204,22.37z"/>
</g>
</svg>
