<?xml version="1.0" encoding="UTF-8" standalone="no"?>
<!-- Generator: Adobe Illustrator 16.0.4, SVG Export Plug-In . SVG Version: 6.00 Build 0)  -->

<svg
   xmlns:dc="http://purl.org/dc/elements/1.1/"
   xmlns:cc="http://creativecommons.org/ns#"
   xmlns:rdf="http://www.w3.org/1999/02/22-rdf-syntax-ns#"
   xmlns:svg="http://www.w3.org/2000/svg"
   xmlns="http://www.w3.org/2000/svg"
   xmlns:sodipodi="http://sodipodi.sourceforge.net/DTD/sodipodi-0.dtd"
   xmlns:inkscape="http://www.inkscape.org/namespaces/inkscape"
   version="1.1"
   id="Calque_1"
   x="0px"
   y="0px"
   width="36px"
   height="36px"
   viewBox="0 0 36 36"
   enable-background="new 0 0 36 36"
   xml:space="preserve"
   inkscape:version="0.91 r13725"
   sodipodi:docname="btn-pause-activated.svg"><metadata
     id="metadata4230"><rdf:RDF><cc:Work
         rdf:about=""><dc:format>image/svg+xml</dc:format><dc:type
           rdf:resource="http://purl.org/dc/dcmitype/StillImage" /><dc:title></dc:title></cc:Work></rdf:RDF></metadata><defs
     id="defs4228" /><sodipodi:namedview
     pagecolor="#ffffff"
     bordercolor="#666666"
     borderopacity="1"
     objecttolerance="10"
     gridtolerance="10"
     guidetolerance="10"
     inkscape:pageopacity="0"
     inkscape:pageshadow="2"
     inkscape:window-width="1498"
     inkscape:window-height="1039"
     id="namedview4226"
     showgrid="false"
     inkscape:zoom="8.4263558"
     inkscape:cx="-0.30011771"
     inkscape:cy="19.388926"
     inkscape:window-x="0"
     inkscape:window-y="16"
     inkscape:window-maximized="1"
     inkscape:current-layer="Calque_1" /><path
     opacity="0.6"
     d="M36,18c0,9.941-8.059,18-18,18l0,0C8.059,36,0,27.941,0,18l0,0C0,8.059,8.059,0,18,0l0,0  C27.941,0,36,8.059,36,18L36,18z"
     id="path4218"
     style="fill:#00c0d5;fill-opacity:0.60000002" /><g
     id="g4220"><path
       fill="#FFFFFF"
       d="M16,23.18c0,0.729-0.671,1.32-1.5,1.32l0,0c-0.829,0-1.5-0.591-1.5-1.32V12.82c0-0.729,0.671-1.32,1.5-1.32   l0,0c0.829,0,1.5,0.591,1.5,1.32V23.18z"
       id="path4222" /><path
       fill="#FFFFFF"
       d="M23,23.18c0,0.729-0.672,1.32-1.5,1.32l0,0c-0.828,0-1.5-0.591-1.5-1.32V12.82c0-0.729,0.672-1.32,1.5-1.32   l0,0c0.828,0,1.5,0.591,1.5,1.32V23.18z"
       id="path4224" /></g></svg>