<?xml version="1.0" encoding="UTF-8" standalone="no"?>
<!-- Generator: Adobe Illustrator 16.0.4, SVG Export Plug-In . SVG Version: 6.00 Build 0)  -->

<svg
   xmlns:dc="http://purl.org/dc/elements/1.1/"
   xmlns:cc="http://creativecommons.org/ns#"
   xmlns:rdf="http://www.w3.org/1999/02/22-rdf-syntax-ns#"
   xmlns:svg="http://www.w3.org/2000/svg"
   xmlns="http://www.w3.org/2000/svg"
   xmlns:sodipodi="http://sodipodi.sourceforge.net/DTD/sodipodi-0.dtd"
   xmlns:inkscape="http://www.inkscape.org/namespaces/inkscape"
   version="1.1"
   id="Calque_1"
   x="0px"
   y="0px"
   width="64px"
   height="64px"
   viewBox="0 0 64 64"
   enable-background="new 0 0 64 64"
   xml:space="preserve"
   inkscape:version="0.91 r13725"
   sodipodi:docname="btn-call.svg"><metadata
     id="metadata13"><rdf:RDF><cc:Work
         rdf:about=""><dc:format>image/svg+xml</dc:format><dc:type
           rdf:resource="http://purl.org/dc/dcmitype/StillImage" /><dc:title /></cc:Work></rdf:RDF></metadata><defs
     id="defs11" /><sodipodi:namedview
     pagecolor="#ffffff"
     bordercolor="#666666"
     borderopacity="1"
     objecttolerance="10"
     gridtolerance="10"
     guidetolerance="10"
     inkscape:pageopacity="0"
     inkscape:pageshadow="2"
     inkscape:window-width="1882"
     inkscape:window-height="1027"
     id="namedview9"
     showgrid="false"
     inkscape:zoom="3.6875"
     inkscape:cx="-7.3220335"
     inkscape:cy="32"
     inkscape:window-x="0"
     inkscape:window-y="28"
     inkscape:window-maximized="1"
     inkscape:current-layer="Calque_1" /><g
     id="g5"
     transform="matrix(1.4449245,0,0,1.4449245,-13.83125,-15.186292)"><path
       d="m 45.715,39.948 c 0,0.351 -0.066,0.809 -0.196,1.374 -0.131,0.563 -0.267,1.011 -0.409,1.334 -0.272,0.649 -1.063,1.338 -2.376,2.065 -1.222,0.663 -2.428,0.993 -3.624,0.993 -0.35,0 -0.689,-0.022 -1.022,-0.068 -0.33,-0.045 -0.704,-0.126 -1.12,-0.244 -0.415,-0.117 -0.723,-0.21 -0.926,-0.282 -0.199,-0.07 -0.562,-0.204 -1.08,-0.398 -0.518,-0.194 -0.837,-0.312 -0.954,-0.352 -1.273,-0.455 -2.409,-0.994 -3.41,-1.616 -1.662,-1.026 -3.379,-2.425 -5.152,-4.198 -1.772,-1.772 -3.172,-3.489 -4.198,-5.153 -0.623,-1 -1.163,-2.136 -1.617,-3.408 -0.039,-0.118 -0.155,-0.436 -0.35,-0.955 -0.195,-0.52 -0.328,-0.88 -0.4,-1.082 -0.071,-0.201 -0.165,-0.509 -0.282,-0.926 -0.117,-0.415 -0.198,-0.789 -0.244,-1.12 -0.045,-0.331 -0.068,-0.672 -0.068,-1.023 0,-1.195 0.331,-2.402 0.994,-3.623 0.727,-1.312 1.415,-2.104 2.064,-2.377 0.325,-0.142 0.77,-0.279 1.335,-0.409 0.565,-0.13 1.022,-0.195 1.373,-0.195 0.182,0 0.318,0.02 0.409,0.058 0.234,0.079 0.578,0.572 1.033,1.481 0.143,0.247 0.338,0.597 0.584,1.051 0.247,0.455 0.474,0.867 0.682,1.237 0.208,0.371 0.409,0.718 0.604,1.043 0.039,0.052 0.153,0.214 0.341,0.487 0.188,0.273 0.328,0.503 0.419,0.692 0.09,0.188 0.136,0.373 0.136,0.554 0,0.261 -0.186,0.585 -0.555,0.974 -0.371,0.39 -0.773,0.747 -1.208,1.072 -0.435,0.325 -0.837,0.669 -1.208,1.033 -0.371,0.364 -0.556,0.662 -0.556,0.896 0,0.117 0.032,0.263 0.098,0.438 0.065,0.175 0.12,0.308 0.166,0.399 0.045,0.091 0.137,0.247 0.273,0.468 0.137,0.221 0.211,0.344 0.224,0.371 0.986,1.779 2.116,3.305 3.39,4.579 1.272,1.272 2.798,2.402 4.578,3.389 0.026,0.014 0.148,0.088 0.369,0.225 0.222,0.137 0.376,0.228 0.468,0.272 0.091,0.046 0.226,0.1 0.4,0.166 0.176,0.063 0.32,0.097 0.438,0.097 0.234,0 0.534,-0.187 0.897,-0.556 0.361,-0.37 0.707,-0.772 1.03,-1.207 0.325,-0.436 0.683,-0.838 1.072,-1.209 0.389,-0.369 0.714,-0.556 0.974,-0.556 0.182,0 0.368,0.049 0.557,0.137 0.188,0.091 0.418,0.231 0.691,0.419 0.273,0.188 0.434,0.302 0.485,0.341 0.324,0.194 0.674,0.397 1.043,0.604 0.371,0.209 0.781,0.437 1.238,0.682 0.454,0.248 0.804,0.442 1.052,0.586 0.909,0.453 1.403,0.799 1.479,1.032 0.038,0.09 0.059,0.227 0.059,0.408 z"
       id="path7"
       inkscape:connector-curvature="0"
       style="fill:#ffffff" /></g></svg>