<?xml version="1.0" encoding="UTF-8" standalone="no"?>
<!-- Generator: Adobe Illustrator 16.0.4, SVG Export Plug-In . SVG Version: 6.00 Build 0)  -->

<svg
   xmlns:dc="http://purl.org/dc/elements/1.1/"
   xmlns:cc="http://creativecommons.org/ns#"
   xmlns:rdf="http://www.w3.org/1999/02/22-rdf-syntax-ns#"
   xmlns:svg="http://www.w3.org/2000/svg"
   xmlns="http://www.w3.org/2000/svg"
   xmlns:sodipodi="http://sodipodi.sourceforge.net/DTD/sodipodi-0.dtd"
   xmlns:inkscape="http://www.inkscape.org/namespaces/inkscape"
   version="1.1"
   id="Calque_1"
   x="0px"
   y="0px"
   width="64px"
   height="64px"
   viewBox="0 0 64 64"
   enable-background="new 0 0 64 64"
   xml:space="preserve"
   inkscape:version="0.91 r13725"
   sodipodi:docname="btn-ignore.svg"><metadata
     id="metadata4243"><rdf:RDF><cc:Work
         rdf:about=""><dc:format>image/svg+xml</dc:format><dc:type
           rdf:resource="http://purl.org/dc/dcmitype/StillImage" /></cc:Work></rdf:RDF></metadata><defs
     id="defs4241" /><sodipodi:namedview
     pagecolor="#ffffff"
     bordercolor="#666666"
     borderopacity="1"
     objecttolerance="10"
     gridtolerance="10"
     guidetolerance="10"
     inkscape:pageopacity="0"
     inkscape:pageshadow="2"
     inkscape:window-width="711"
     inkscape:window-height="480"
     id="namedview4239"
     showgrid="false"
     inkscape:zoom="3.6875"
     inkscape:cx="33.627119"
     inkscape:cy="32"
     inkscape:window-x="0"
     inkscape:window-y="4"
     inkscape:window-maximized="0"
     inkscape:current-layer="Calque_1" /><g
     id="g4235"
     transform="matrix(2.0004572,0,0,2.1004522,-31.794031,-35.386141)"><path
       d="m 42.622,38.764 c 0,0.487 -0.171,0.9 -0.512,1.242 l -2.481,2.482 c -0.342,0.34 -0.755,0.511 -1.241,0.511 -0.487,0 -0.901,-0.171 -1.243,-0.511 l -5.365,-5.367 -5.367,5.367 c -0.341,0.34 -0.755,0.511 -1.242,0.511 -0.487,0 -0.901,-0.171 -1.241,-0.511 l -2.482,-2.482 c -0.341,-0.342 -0.511,-0.755 -0.511,-1.242 0,-0.486 0.17,-0.9 0.511,-1.241 l 5.367,-5.367 -5.367,-5.367 c -0.341,-0.34 -0.511,-0.754 -0.511,-1.241 0,-0.487 0.17,-0.9 0.511,-1.241 l 2.482,-2.483 c 0.34,-0.34 0.754,-0.511 1.241,-0.511 0.487,0 0.9,0.171 1.242,0.511 l 5.367,5.367 5.365,-5.367 c 0.342,-0.34 0.756,-0.511 1.243,-0.511 0.486,0 0.899,0.171 1.241,0.511 l 2.481,2.483 c 0.341,0.341 0.512,0.754 0.512,1.241 0,0.487 -0.171,0.901 -0.512,1.241 l -5.367,5.367 5.367,5.367 c 0.341,0.34 0.512,0.754 0.512,1.241 z"
       id="path4237"
       inkscape:connector-curvature="0"
       style="fill:#ffffff" /></g></svg>