<?xml version="1.0" encoding="utf-8"?>
<!-- Generator: Adobe Illustrator 16.0.4, SVG Export Plug-In . SVG Version: 6.00 Build 0)  -->
<!DOCTYPE svg PUBLIC "-//W3C//DTD SVG 1.1//EN" "http://www.w3.org/Graphics/SVG/1.1/DTD/svg11.dtd">
<svg version="1.1" id="Calque_1" xmlns="http://www.w3.org/2000/svg" xmlns:xlink="http://www.w3.org/1999/xlink" x="0px" y="0px"
	 width="64px" height="64px" viewBox="0 0 64 64" enable-background="new 0 0 64 64" xml:space="preserve">
<path fill="#F44336" d="M64,32c0,17.673-14.327,32-32,32l0,0C14.327,64,0,49.673,0,32l0,0C0,14.327,14.327,0,32,0l0,0
	C49.673,0,64,14.327,64,32L64,32z"/>
<g>
	<path fill="#FFFFFF" d="M42.622,38.764c0,0.487-0.171,0.9-0.512,1.242l-2.481,2.482c-0.342,0.34-0.755,0.511-1.241,0.511
		c-0.487,0-0.901-0.171-1.243-0.511l-5.365-5.367l-5.367,5.367c-0.341,0.34-0.755,0.511-1.242,0.511s-0.901-0.171-1.241-0.511
		l-2.482-2.482c-0.341-0.342-0.511-0.755-0.511-1.242c0-0.486,0.17-0.9,0.511-1.241l5.367-5.367l-5.367-5.367
		c-0.341-0.34-0.511-0.754-0.511-1.241s0.17-0.9,0.511-1.241l2.482-2.483c0.34-0.34,0.754-0.511,1.241-0.511s0.9,0.171,1.242,0.511
		l5.367,5.367l5.365-5.367c0.342-0.34,0.756-0.511,1.243-0.511c0.486,0,0.899,0.171,1.241,0.511l2.481,2.483
		c0.341,0.341,0.512,0.754,0.512,1.241s-0.171,0.901-0.512,1.241l-5.367,5.367l5.367,5.367
		C42.451,37.863,42.622,38.277,42.622,38.764z"/>
</g>
</svg>
