<?xml version="1.0" encoding="utf-8"?>
<!-- Generator: Adobe Illustrator 16.0.4, SVG Export Plug-In . SVG Version: 6.00 Build 0)  -->
<!DOCTYPE svg PUBLIC "-//W3C//DTD SVG 1.1//EN" "http://www.w3.org/Graphics/SVG/1.1/DTD/svg11.dtd">
<svg version="1.1" id="Calque_1" xmlns="http://www.w3.org/2000/svg" xmlns:xlink="http://www.w3.org/1999/xlink" x="0px" y="0px"
	 width="64px" height="64px" viewBox="0 0 64 64" enable-background="new 0 0 64 64" xml:space="preserve">
<path fill="#4CAF50" d="M64,32c0,17.673-14.327,32-32,32l0,0C14.327,64,0,49.673,0,32l0,0C0,14.327,14.327,0,32,0l0,0
	C49.673,0,64,14.327,64,32L64,32z"/>
<g>
	<path fill="#FFFFFF" d="M45.715,39.948c0,0.351-0.066,0.809-0.196,1.374c-0.131,0.563-0.267,1.011-0.409,1.334
		c-0.272,0.649-1.063,1.338-2.376,2.065c-1.222,0.663-2.428,0.993-3.624,0.993c-0.35,0-0.689-0.022-1.022-0.068
		c-0.33-0.045-0.704-0.126-1.12-0.244c-0.415-0.117-0.723-0.21-0.926-0.282c-0.199-0.07-0.562-0.204-1.08-0.398
		s-0.837-0.312-0.954-0.352c-1.273-0.455-2.409-0.994-3.41-1.616c-1.662-1.026-3.379-2.425-5.152-4.198
		c-1.772-1.772-3.172-3.489-4.198-5.153c-0.623-1-1.163-2.136-1.617-3.408c-0.039-0.118-0.155-0.436-0.35-0.955
		c-0.195-0.52-0.328-0.88-0.4-1.082c-0.071-0.201-0.165-0.509-0.282-0.926c-0.117-0.415-0.198-0.789-0.244-1.12
		c-0.045-0.331-0.068-0.672-0.068-1.023c0-1.195,0.331-2.402,0.994-3.623c0.727-1.312,1.415-2.104,2.064-2.377
		c0.325-0.142,0.77-0.279,1.335-0.409c0.565-0.13,1.022-0.195,1.373-0.195c0.182,0,0.318,0.02,0.409,0.058
		c0.234,0.079,0.578,0.572,1.033,1.481c0.143,0.247,0.338,0.597,0.584,1.051c0.247,0.455,0.474,0.867,0.682,1.237
		c0.208,0.371,0.409,0.718,0.604,1.043c0.039,0.052,0.153,0.214,0.341,0.487c0.188,0.273,0.328,0.503,0.419,0.692
		c0.09,0.188,0.136,0.373,0.136,0.554c0,0.261-0.186,0.585-0.555,0.974c-0.371,0.39-0.773,0.747-1.208,1.072
		s-0.837,0.669-1.208,1.033s-0.556,0.662-0.556,0.896c0,0.117,0.032,0.263,0.098,0.438c0.065,0.175,0.12,0.308,0.166,0.399
		c0.045,0.091,0.137,0.247,0.273,0.468c0.137,0.221,0.211,0.344,0.224,0.371c0.986,1.779,2.116,3.305,3.39,4.579
		c1.272,1.272,2.798,2.402,4.578,3.389c0.026,0.014,0.148,0.088,0.369,0.225c0.222,0.137,0.376,0.228,0.468,0.272
		c0.091,0.046,0.226,0.1,0.4,0.166c0.176,0.063,0.32,0.097,0.438,0.097c0.234,0,0.534-0.187,0.897-0.556
		c0.361-0.37,0.707-0.772,1.03-1.207c0.325-0.436,0.683-0.838,1.072-1.209c0.389-0.369,0.714-0.556,0.974-0.556
		c0.182,0,0.368,0.049,0.557,0.137c0.188,0.091,0.418,0.231,0.691,0.419c0.273,0.188,0.434,0.302,0.485,0.341
		c0.324,0.194,0.674,0.397,1.043,0.604c0.371,0.209,0.781,0.437,1.238,0.682c0.454,0.248,0.804,0.442,1.052,0.586
		c0.909,0.453,1.403,0.799,1.479,1.032C45.694,39.63,45.715,39.767,45.715,39.948z"/>
</g>
</svg>
