<?xml version="1.0" encoding="utf-8"?>
<!-- Generator: Adobe Illustrator 16.0.4, SVG Export Plug-In . SVG Version: 6.00 Build 0)  -->
<!DOCTYPE svg PUBLIC "-//W3C//DTD SVG 1.1//EN" "http://www.w3.org/Graphics/SVG/1.1/DTD/svg11.dtd">
<svg version="1.1" id="Calque_1" xmlns="http://www.w3.org/2000/svg" xmlns:xlink="http://www.w3.org/1999/xlink" x="0px" y="0px"
	 width="30px" height="30px" viewBox="0 0 30 30" enable-background="new 0 0 30 30" xml:space="preserve">
<path fill="#00BFD3" d="M30,15c0,8.284-6.716,15-15,15l0,0C6.716,30,0,23.284,0,15l0,0C0,6.716,6.716,0,15,0l0,0
	C23.284,0,30,6.716,30,15L30,15z"/>
<g>
	<path fill="#FFFFFF" d="M21.206,11.403c0.641,0.786,0.96,1.644,0.96,2.571s-0.319,1.785-0.96,2.572
		c-0.64,0.786-1.508,1.407-2.606,1.863c-1.099,0.455-2.298,0.684-3.6,0.684c-0.373,0-0.76-0.021-1.16-0.063
		c-1.056,0.933-2.282,1.578-3.679,1.935C9.9,21.04,9.596,21.099,9.249,21.143c-0.09,0.009-0.171-0.015-0.244-0.072
		c-0.072-0.059-0.119-0.137-0.14-0.232V20.83c-0.016-0.021-0.018-0.054-0.004-0.096c0.013-0.044,0.019-0.07,0.016-0.081
		c-0.003-0.011,0.009-0.036,0.036-0.075c0.027-0.04,0.042-0.064,0.048-0.072c0.005-0.008,0.024-0.031,0.056-0.068
		s0.053-0.061,0.063-0.072c0.038-0.042,0.12-0.134,0.249-0.275c0.127-0.142,0.22-0.242,0.276-0.304
		c0.056-0.062,0.138-0.167,0.248-0.316s0.196-0.285,0.26-0.408c0.063-0.121,0.136-0.28,0.216-0.472s0.149-0.394,0.208-0.607
		c-0.837-0.475-1.497-1.062-1.979-1.76c-0.482-0.698-0.724-1.448-0.724-2.248c0-0.693,0.189-1.356,0.568-1.987
		c0.378-0.632,0.887-1.177,1.527-1.636c0.64-0.458,1.402-0.822,2.287-1.091C13.102,8.991,14.03,8.856,15,8.856
		c1.302,0,2.501,0.228,3.6,0.684C19.698,9.996,20.566,10.617,21.206,11.403z"/>
</g>
</svg>
