<?xml version="1.0" encoding="utf-8"?>
<!-- Generator: Adobe Illustrator 16.0.4, SVG Export Plug-In . SVG Version: 6.00 Build 0)  -->
<!DOCTYPE svg PUBLIC "-//W3C//DTD SVG 1.1//EN" "http://www.w3.org/Graphics/SVG/1.1/DTD/svg11.dtd">
<svg version="1.1" id="Calque_1" xmlns="http://www.w3.org/2000/svg" xmlns:xlink="http://www.w3.org/1999/xlink" x="0px" y="0px"
	 width="30px" height="30px" viewBox="0 0 30 30" enable-background="new 0 0 30 30" xml:space="preserve">
<path fill="#00BFD3" d="M30,15c0,8.284-6.716,15-15,15l0,0C6.716,30,0,23.284,0,15l0,0C0,6.716,6.716,0,15,0l0,0
	C23.284,0,30,6.716,30,15L30,15z"/>
<g>
	<path fill="#FFFFFF" d="M22.31,10.562v8.875c0,0.229-0.105,0.389-0.318,0.48c-0.071,0.028-0.139,0.041-0.204,0.041
		c-0.146,0-0.269-0.051-0.367-0.154l-3.288-3.287v1.354c0,0.646-0.229,1.199-0.688,1.659c-0.459,0.46-1.013,0.689-1.66,0.689H10.04
		c-0.647,0-1.201-0.229-1.66-0.689c-0.46-0.46-0.69-1.013-0.69-1.659v-5.744c0-0.646,0.229-1.201,0.69-1.66
		c0.459-0.46,1.013-0.689,1.66-0.689h5.743c0.647,0,1.201,0.229,1.66,0.689c0.46,0.459,0.688,1.013,0.688,1.66v1.346l3.288-3.28
		c0.099-0.103,0.221-0.155,0.367-0.155c0.065,0,0.133,0.014,0.204,0.041C22.204,10.173,22.31,10.334,22.31,10.562z"/>
</g>
</svg>
