<?xml version="1.0" encoding="utf-8"?>
<!-- Generator: Adobe Illustrator 16.0.4, SVG Export Plug-In . SVG Version: 6.00 Build 0)  -->
<!DOCTYPE svg PUBLIC "-//W3C//DTD SVG 1.1//EN" "http://www.w3.org/Graphics/SVG/1.1/DTD/svg11.dtd">
<svg version="1.1" id="Calque_1" xmlns="http://www.w3.org/2000/svg" xmlns:xlink="http://www.w3.org/1999/xlink" x="0px" y="0px"
	 width="30px" height="30px" viewBox="0 0 30 30" enable-background="new 0 0 30 30" xml:space="preserve">
<path fill="#00BFD3" d="M30,15c0,8.284-6.716,15-15,15l0,0C6.716,30,0,23.284,0,15l0,0C0,6.716,6.716,0,15,0l0,0
	C23.284,0,30,6.716,30,15L30,15z"/>
<g>
	<path fill="#FFFFFF" d="M19.715,14.357v1.286c0,0.179-0.062,0.33-0.188,0.455c-0.125,0.125-0.277,0.188-0.457,0.188h-2.785v2.787
		c0,0.178-0.062,0.33-0.188,0.455c-0.125,0.125-0.277,0.188-0.455,0.188h-1.286c-0.179,0-0.33-0.062-0.455-0.188
		s-0.188-0.277-0.188-0.455v-2.787h-2.785c-0.179,0-0.331-0.062-0.456-0.188c-0.125-0.125-0.188-0.276-0.188-0.455v-1.286
		c0-0.179,0.062-0.33,0.188-0.455s0.277-0.188,0.456-0.188h2.785v-2.786c0-0.179,0.062-0.33,0.188-0.455s0.276-0.188,0.455-0.188
		h1.286c0.178,0,0.33,0.062,0.455,0.188c0.125,0.125,0.188,0.276,0.188,0.455v2.786h2.785c0.18,0,0.332,0.062,0.457,0.188
		S19.715,14.178,19.715,14.357z"/>
</g>
</svg>
