<?xml version="1.0" encoding="utf-8"?>
<!-- Generator: Adobe Illustrator 16.0.4, SVG Export Plug-In . SVG Version: 6.00 Build 0)  -->
<!DOCTYPE svg PUBLIC "-//W3C//DTD SVG 1.1//EN" "http://www.w3.org/Graphics/SVG/1.1/DTD/svg11.dtd">
<svg version="1.1" id="Calque_1" xmlns="http://www.w3.org/2000/svg" xmlns:xlink="http://www.w3.org/1999/xlink" x="0px" y="0px"
	 width="30px" height="30px" viewBox="0 0 30 30" enable-background="new 0 0 30 30" xml:space="preserve">
<path fill="#00BFD3" d="M30,15c0,8.284-6.716,15-15,15l0,0C6.716,30,0,23.284,0,15l0,0C0,6.716,6.716,0,15,0l0,0
	C23.284,0,30,6.716,30,15L30,15z"/>
<g>
	<path fill-rule="evenodd" clip-rule="evenodd" fill="#FFFFFF" d="M14.377,13.235c0.802-0.028,1.534,0.156,2.12,0.738
		c0.346,0.343,0.535,0.771,0.596,1.251c0.105,0.825-0.138,1.572-0.507,2.297c-0.344,0.678-0.663,1.367-0.989,2.054
		c-0.102,0.216-0.107,0.464,0.086,0.601c0.15,0.107,0.381,0.147,0.573,0.14c0.258-0.01,0.512-0.095,0.769-0.146
		c0.236-0.046,0.431,0.039,0.519,0.252c0.085,0.206,0.03,0.405-0.168,0.553c-1.057,0.78-2.23,1.091-3.522,0.827
		c-0.815-0.168-1.438-0.636-1.73-1.439c-0.161-0.442-0.208-0.91-0.104-1.393c0.236-1.087,0.881-1.989,1.308-2.99
		c0.113-0.264,0.162-0.57,0.172-0.86c0.004-0.106-0.181-0.302-0.293-0.313c-0.274-0.027-0.558,0.026-0.837,0.054
		c-0.135,0.014-0.269,0.056-0.405,0.065c-0.204,0.014-0.385-0.076-0.408-0.28c-0.016-0.146,0.03-0.374,0.132-0.444
		c0.38-0.266,0.774-0.54,1.204-0.701C13.358,13.323,13.976,13.232,14.377,13.235C14.382,13.258,14.377,13.235,14.377,13.235z"/>
	<path fill-rule="evenodd" clip-rule="evenodd" fill="#FFFFFF" d="M16.289,7.995c1.18,0.065,2.153,0.891,2.158,2.169
		c0.004,1.267-0.96,2.171-2.165,2.181c-1.193,0.01-2.189-0.994-2.166-2.194C14.14,8.947,15.08,8.043,16.289,7.995z"/>
</g>
</svg>
