<?xml version="1.0" encoding="UTF-8" standalone="no"?>
<!-- Generator: Adobe Illustrator 16.0.4, SVG Export Plug-In . SVG Version: 6.00 Build 0)  -->

<svg
   xmlns:dc="http://purl.org/dc/elements/1.1/"
   xmlns:cc="http://creativecommons.org/ns#"
   xmlns:rdf="http://www.w3.org/1999/02/22-rdf-syntax-ns#"
   xmlns:svg="http://www.w3.org/2000/svg"
   xmlns="http://www.w3.org/2000/svg"
   xmlns:sodipodi="http://sodipodi.sourceforge.net/DTD/sodipodi-0.dtd"
   xmlns:inkscape="http://www.inkscape.org/namespaces/inkscape"
   version="1.1"
   id="Calque_1"
   x="0px"
   y="0px"
   width="30px"
   height="30px"
   viewBox="0 0 30 30"
   enable-background="new 0 0 30 30"
   xml:space="preserve"
   inkscape:version="0.91 r13725"
   sodipodi:docname="btn-video.svg"><metadata
     id="metadata4254"><rdf:RDF><cc:Work
         rdf:about=""><dc:format>image/svg+xml</dc:format><dc:type
           rdf:resource="http://purl.org/dc/dcmitype/StillImage" /><dc:title></dc:title></cc:Work></rdf:RDF></metadata><defs
     id="defs4252" /><sodipodi:namedview
     pagecolor="#7e7e7e"
     bordercolor="#666666"
     borderopacity="1"
     objecttolerance="10"
     gridtolerance="10"
     guidetolerance="10"
     inkscape:pageopacity="1"
     inkscape:pageshadow="2"
     inkscape:window-width="1882"
     inkscape:window-height="1027"
     id="namedview4250"
     showgrid="false"
     inkscape:zoom="28.6"
     inkscape:cx="15.20979"
     inkscape:cy="15"
     inkscape:window-x="0"
     inkscape:window-y="28"
     inkscape:window-maximized="1"
     inkscape:current-layer="Calque_1" /><g
     id="g4246"
     transform="matrix(1.9805516,0,0,1.9805516,-14.708274,-14.706803)"><path
       d="m 22.31,10.562 0,8.875 c 0,0.229 -0.105,0.389 -0.318,0.48 -0.071,0.028 -0.139,0.041 -0.204,0.041 -0.146,0 -0.269,-0.051 -0.367,-0.154 l -3.288,-3.287 0,1.354 c 0,0.646 -0.229,1.199 -0.688,1.659 -0.459,0.46 -1.013,0.689 -1.66,0.689 l -5.745,0 C 9.393,20.219 8.839,19.99 8.38,19.53 7.92,19.07 7.69,18.517 7.69,17.871 l 0,-5.744 c 0,-0.646 0.229,-1.201 0.69,-1.66 0.459,-0.46 1.013,-0.689 1.66,-0.689 l 5.743,0 c 0.647,0 1.201,0.229 1.66,0.689 0.46,0.459 0.688,1.013 0.688,1.66 l 0,1.346 3.288,-3.28 c 0.099,-0.103 0.221,-0.155 0.367,-0.155 0.065,0 0.133,0.014 0.204,0.041 0.214,0.094 0.32,0.255 0.32,0.483 z"
       id="path4248"
       inkscape:connector-curvature="0"
       style="fill:#ffffff" /></g></svg>