<?xml version="1.0" encoding="utf-8"?>
<!-- Generator: Adobe Illustrator 16.0.4, SVG Export Plug-In . SVG Version: 6.00 Build 0)  -->
<!DOCTYPE svg PUBLIC "-//W3C//DTD SVG 1.1//EN" "http://www.w3.org/Graphics/SVG/1.1/DTD/svg11.dtd">
<svg version="1.1" id="Calque_1" xmlns="http://www.w3.org/2000/svg" xmlns:xlink="http://www.w3.org/1999/xlink" x="0px" y="0px"
	 width="128px" height="128px" viewBox="0 0 128 128" enable-background="new 0 0 128 128" xml:space="preserve">
<g>
	<path fill="#00BFD3" d="M49.81,84.928c-5.336-5.854-8.708-14.609-9.971-22.167c-0.981,0.68-1.808,1.146-2.358,1.263
		c-3.659-25.575,10.126-29.569,10.126-29.569c0.707-0.363,1.764-0.459,2.943-0.338l1.146-2.418c2.772-2.945,14.63-8.364,26.811,3.76
		c7.175,7.143,16.37,4.827,17.756,1.362c-1.482,7.576-4.321,12.391-9.419,15.16c0.29,1.529,0.449,3.076,0.445,4.614
		c-0.014,8.355-3.643,20.679-10.466,28.236c13.357,3.933,25.328,13.502,30.37,26.391C119.979,99.52,128.002,82.697,128.002,64
		c0-35.346-28.656-64-64.003-64S-0.002,28.654-0.002,64c0,18.328,7.717,34.845,20.065,46.513
		C25.217,98.087,36.833,88.846,49.81,84.928z"/>
	<path fill="#FFFFFF" d="M107.193,111.221c-5.042-12.889-17.013-22.458-30.37-26.391c6.823-7.558,10.452-19.881,10.466-28.236
		c0.004-1.538-0.155-3.084-0.445-4.614c5.098-2.769,7.937-7.583,9.419-15.16c-1.386,3.465-10.581,5.781-17.756-1.362
		c-12.181-12.125-24.039-6.705-26.811-3.76l-1.146,2.418c-1.179-0.121-2.236-0.025-2.943,0.338c0,0-13.785,3.994-10.126,29.569
		c0.55-0.117,1.377-0.583,2.358-1.263c1.263,7.558,4.635,16.312,9.971,22.167c-12.977,3.918-24.593,13.159-29.747,25.585
		C31.527,121.346,46.981,128,63.999,128C80.647,128,95.809,121.64,107.193,111.221z"/>
</g>
</svg>
